%
M48
M72
T01C0.0320
T02C0.0472
%
T01
X2091Y667
X3453Y1167
X2091Y1667
X2484Y2617
X2484Y3417
X2974Y4395
X1974Y4395
X2091Y5194
X3453Y5891
X2091Y6194
X5453Y5891
X6618Y5998
X7496Y6285
X8496Y6285
X9358Y6285
X10949Y5407
X9587Y4612
X8587Y4612
X7587Y4612
X6618Y4998
X4797Y4229
X6807Y3529
X7807Y3529
X9112Y3529
X10949Y2651
X9587Y2446
X8587Y2446
X7587Y2446
X6618Y2061
X5453Y1167
X6618Y1061
X7496Y773
X8496Y773
X9358Y773
X10949Y1651
X11358Y773
X11112Y3529
X10949Y4407
X11358Y6285
X4797Y2829
T02
X1106Y2154
X1106Y3532
X1106Y4910
X12130Y4910
X12130Y3532
X12130Y2154
M30
